<?xml version="1.0" encoding="iso-8859-1"?>
<!-- Uploaded to: SVG Repo, www.svgrepo.com, Generator: SVG Repo Mixer Tools -->
<svg height="800px" width="800px" version="1.1" id="Layer_1" xmlns="http://www.w3.org/2000/svg" xmlns:xlink="http://www.w3.org/1999/xlink" 
	 viewBox="0 0 512.001 512.001" xml:space="preserve">
<path style="fill:#7CD8A4;" d="M437.118,512.001c0-93.257-53.272-67.375-65.782-98.233c-12.51-30.858,52.371-43.032,36.525-88.902
	c-15.845-45.869-57.095-20.395-69.605-53.754s54.509-66.713,30.323-99.239s-62.397,6.383-75.741-28.644s43.367-66.719,6.672-96.742
	c-20.48-16.757-45.911-3.585-60.041,11.299c-9.693,10.212-26.8,6.808-31.897-6.316c-10.159-26.158-27.328-56.171-51.508-50.851
	c-69.735,15.342,5.838,100.078-47.537,116.757s-33.359,69.22-7.506,74.225s54.209,35.861,23.351,63.383
	c-39.921,35.605-26.56,66.963-5.003,82.564c17.953,12.994,35.861,33.359-5.003,70.054c-47.135,42.325,35.861,104.397,35.861,104.397
	h286.89V512.001z"/>
<g>
	<path style="fill:#3EAC92;" d="M210.343,279.72c6.036-1.517,11.771-2.846,17.227-4.02l31.961-5.839
		c37.46-5.734,62.145-7.131,81.566-23.714c12.423-24.992,45.629-49.865,27.481-74.273c-7.965-10.712-17.452-13.675-27.071-14.083
		c-21.268,22.947-56.493,31.468-106.602,39.527l-35.64,6.728c-28.959,7.679-49.475,20.51-61.929,30.316
		c-1.315,6.783-5.321,13.805-12.965,20.622c-39.921,35.605-26.56,66.963-5.003,82.565c1.348,0.975,2.695,1.993,4.017,3.055
		C126.786,332.331,145.095,296.121,210.343,279.72z"/>
	<path style="fill:#3EAC92;" d="M182.652,135.608c57.785-14.525,88.054-7.598,110.781-18.108
		c8.621-25.074,33.576-48.511,6.076-71.01c-20.48-16.756-45.911-3.585-60.041,11.299c-9.693,10.212-26.8,6.808-31.897-6.316
		C197.413,25.314,180.244-4.699,156.064,0.62c-69.735,15.342,5.837,100.078-47.537,116.758
		c-47.94,14.982-36.672,58.885-15.148,71.298C102.574,176.737,128.799,149.145,182.652,135.608z"/>
	<path style="fill:#3EAC92;" d="M255.999,434.978l33.836-7.087c39.855-3.922,63.082-9.231,79.986-20.124
		c-2.604-26.649,52.815-40.124,38.038-82.901c-4.203-12.168-10.194-19.314-16.962-23.871
		c-23.797,27.125-48.825,31.817-107.919,41.32l-43.095,10.404c-53.571,14.205-118.477,93.902-132.367,111.606
		c11.316,21.102,32.02,39.072,39.717,45.315C159.739,495.854,201.166,453.717,255.999,434.978z"/>
	<path style="fill:#3EAC92;" d="M428.995,462.546c-13.41,17.798-62.46,40.27-101.682,49.455h109.805
		C437.117,489.295,433.953,473.665,428.995,462.546z"/>
</g>
<g>
	<path style="fill:#266659;" d="M255.108,512.001c0.032-0.406,4.739-43.785-1.79-104.887
		c-6.001-56.164-21.614-141.526-61.905-229.245c-3.728-8.113-0.171-17.713,7.943-21.44c8.114-3.727,17.714-0.171,21.44,7.944
		c42.273,92.031,58.555,181.419,64.768,240.202c6.753,63.872,3.514,105.678,3.373,107.427H255.108z"/>
	<g style="opacity:0.19;">
		<path style="fill:#266659;" d="M126.741,51.472c5.097,13.125,22.203,16.528,31.897,6.316
			c9.926-10.457,25.431-20.052,40.878-19.034c-10.418-22.155-25.776-42.6-46.078-38.133c-26.128,5.748-31.857,21.24-31.613,39.242
			C123.613,43.733,125.254,47.643,126.741,51.472z"/>
		<path style="fill:#266659;" d="M368.708,413.769c-12.51-30.858,52.371-43.032,36.525-88.902
			c-15.845-45.869-57.095-20.395-69.605-53.754c-12.51-33.359,54.509-66.713,30.323-99.239s-62.397,6.383-75.741-28.644
			c-13.344-35.027,43.367-66.719,6.672-96.742c-20.48-16.756-45.911-3.585-60.041,11.299c-1.961,2.065-4.227,3.564-6.633,4.548
			c7.531,25.317-29.222,51.968-18.202,80.895c13.344,35.027,51.555-3.882,75.741,28.644s-42.833,65.879-30.323,99.239
			c12.51,33.359,53.759,7.885,69.605,53.754c15.845,45.869-49.035,58.044-36.525,88.902s65.782,4.976,65.782,98.233h78.204
			C434.49,418.744,381.218,444.626,368.708,413.769z"/>
	</g>
</g>
</svg>